<?xml version="1.0" encoding="us-ascii" standalone="no"?><svg xmlns="http://www.w3.org/2000/svg" xmlns:xlink="http://www.w3.org/1999/xlink" contentStyleType="text/css" height="568px" preserveAspectRatio="none" style="width:229px;height:568px;background:#FFFFFF;" version="1.1" viewBox="0 0 229 568" width="229px" zoomAndPan="magnify"><defs/><g><ellipse cx="114.5" cy="20" fill="#222222" rx="10" ry="10" style="stroke:#222222;stroke-width:1.0;"/><rect fill="#F1F1F1" height="33.9688" rx="12.5" ry="12.5" style="stroke:#181818;stroke-width:0.5;" width="80" x="74.5" y="50"/><text fill="#000000" font-family="sans-serif" font-size="12" lengthAdjust="spacing" textLength="60" x="84.5" y="71.1387">&#21021;&#26399;&#20516;&#35373;&#23450;</text><rect fill="#F1F1F1" height="33.9688" rx="12.5" ry="12.5" style="stroke:#181818;stroke-width:0.5;" width="104" x="62.5" y="103.9688"/><text fill="#000000" font-family="sans-serif" font-size="12" lengthAdjust="spacing" textLength="84" x="72.5" y="125.1074">&#20445;&#23384;&#22580;&#25152;&#12434;&#35373;&#23450;</text><rect fill="#F1F1F1" height="33.9688" rx="12.5" ry="12.5" style="stroke:#181818;stroke-width:0.5;" width="176" x="26.5" y="157.9375"/><text fill="#000000" font-family="sans-serif" font-size="12" lengthAdjust="spacing" textLength="156" x="36.5" y="179.0762">&#24773;&#22577;&#21462;&#24471;&#23550;&#35937;&#12501;&#12457;&#12523;&#12480;&#12434;&#35373;&#23450;</text><rect fill="#F1F1F1" height="33.9688" rx="12.5" ry="12.5" style="stroke:#181818;stroke-width:0.5;" width="140" x="44.5" y="211.9063"/><text fill="#000000" font-family="sans-serif" font-size="12" lengthAdjust="spacing" textLength="120" x="54.5" y="233.0449">&#20986;&#21147;&#12501;&#12449;&#12452;&#12523;&#21517;&#12434;&#35373;&#23450;</text><rect fill="#F1F1F1" height="33.9688" rx="12.5" ry="12.5" style="stroke:#181818;stroke-width:0.5;" width="92" x="68.5" y="265.875"/><text fill="#000000" font-family="sans-serif" font-size="12" lengthAdjust="spacing" textLength="72" x="78.5" y="287.0137">&#12525;&#12464;&#21462;&#24471;&#38283;&#22987;</text><rect fill="#F1F1F1" height="33.9688" rx="12.5" ry="12.5" style="stroke:#181818;stroke-width:0.5;" width="207" x="11" y="319.8438"/><text fill="#000000" font-family="sans-serif" font-size="12" lengthAdjust="spacing" textLength="187" x="21" y="340.9824">Get-Childitem -Recurse $target</text><rect fill="#F1F1F1" height="33.9688" rx="12.5" ry="12.5" style="stroke:#181818;stroke-width:0.5;" width="80" x="74.5" y="373.8125"/><text fill="#000000" font-family="sans-serif" font-size="12" lengthAdjust="spacing" textLength="60" x="84.5" y="394.9512">&#24773;&#22577;&#12434;&#21462;&#24471;</text><rect fill="#F1F1F1" height="33.9688" rx="12.5" ry="12.5" style="stroke:#181818;stroke-width:0.5;" width="176" x="26.5" y="427.7813"/><text fill="#000000" font-family="sans-serif" font-size="12" lengthAdjust="spacing" textLength="156" x="36.5" y="448.9199">&#24773;&#22577;&#12434;&#25351;&#23450;&#12373;&#12428;&#12383;&#22580;&#25152;&#12395;&#20986;&#21147;</text><rect fill="#F1F1F1" height="33.9688" rx="12.5" ry="12.5" style="stroke:#181818;stroke-width:0.5;" width="92" x="68.5" y="481.75"/><text fill="#000000" font-family="sans-serif" font-size="12" lengthAdjust="spacing" textLength="72" x="78.5" y="502.8887">&#12525;&#12464;&#21462;&#24471;&#32066;&#20102;</text><ellipse cx="114.5" cy="546.7188" fill="none" rx="11" ry="11" style="stroke:#222222;stroke-width:1.0;"/><ellipse cx="114.5" cy="546.7188" fill="#222222" rx="6" ry="6" style="stroke:#111111;stroke-width:1.0;"/><line style="stroke:#181818;stroke-width:1.0;" x1="114.5" x2="114.5" y1="30" y2="50"/><polygon fill="#181818" points="110.5,40,114.5,50,118.5,40,114.5,44" style="stroke:#181818;stroke-width:1.0;"/><line style="stroke:#181818;stroke-width:1.0;" x1="114.5" x2="114.5" y1="83.9688" y2="103.9688"/><polygon fill="#181818" points="110.5,93.9688,114.5,103.9688,118.5,93.9688,114.5,97.9688" style="stroke:#181818;stroke-width:1.0;"/><line style="stroke:#181818;stroke-width:1.0;" x1="114.5" x2="114.5" y1="137.9375" y2="157.9375"/><polygon fill="#181818" points="110.5,147.9375,114.5,157.9375,118.5,147.9375,114.5,151.9375" style="stroke:#181818;stroke-width:1.0;"/><line style="stroke:#181818;stroke-width:1.0;" x1="114.5" x2="114.5" y1="191.9063" y2="211.9063"/><polygon fill="#181818" points="110.5,201.9063,114.5,211.9063,118.5,201.9063,114.5,205.9063" style="stroke:#181818;stroke-width:1.0;"/><line style="stroke:#181818;stroke-width:1.0;" x1="114.5" x2="114.5" y1="245.875" y2="265.875"/><polygon fill="#181818" points="110.5,255.875,114.5,265.875,118.5,255.875,114.5,259.875" style="stroke:#181818;stroke-width:1.0;"/><line style="stroke:#181818;stroke-width:1.0;" x1="114.5" x2="114.5" y1="299.8438" y2="319.8438"/><polygon fill="#181818" points="110.5,309.8438,114.5,319.8438,118.5,309.8438,114.5,313.8438" style="stroke:#181818;stroke-width:1.0;"/><line style="stroke:#181818;stroke-width:1.0;" x1="114.5" x2="114.5" y1="353.8125" y2="373.8125"/><polygon fill="#181818" points="110.5,363.8125,114.5,373.8125,118.5,363.8125,114.5,367.8125" style="stroke:#181818;stroke-width:1.0;"/><line style="stroke:#181818;stroke-width:1.0;" x1="114.5" x2="114.5" y1="407.7813" y2="427.7813"/><polygon fill="#181818" points="110.5,417.7813,114.5,427.7813,118.5,417.7813,114.5,421.7813" style="stroke:#181818;stroke-width:1.0;"/><line style="stroke:#181818;stroke-width:1.0;" x1="114.5" x2="114.5" y1="461.75" y2="481.75"/><polygon fill="#181818" points="110.5,471.75,114.5,481.75,118.5,471.75,114.5,475.75" style="stroke:#181818;stroke-width:1.0;"/><line style="stroke:#181818;stroke-width:1.0;" x1="114.5" x2="114.5" y1="515.7188" y2="535.7188"/><polygon fill="#181818" points="110.5,525.7188,114.5,535.7188,118.5,525.7188,114.5,529.7188" style="stroke:#181818;stroke-width:1.0;"/><!--SRC=[Aov9B2hXidhQCVVPdFbF6vQyMB7swRfPrbnMJ_RFVRfsnjC5MvvrDZnkcWGNVzRS-dJ1ngVzqvxkc_vq_RuN6nS-Rfxwk6dbu-RLZvjHL3vjt_MqQpPOTk7ZfYL01Kydz28hUDoyzd7J1eXHBwTrFrtU3HHqJotHTSx8p4d9B4dDLT0DIaqkBIfELL01kZCzjGJk0A0v48t88izwse4cFsu4sjZpk74-rF6Dgo4kGRFn-TQc9xlQhBcAI_8B0000]--></g></svg>