<?xml version="1.0" encoding="us-ascii" standalone="no"?><svg xmlns="http://www.w3.org/2000/svg" xmlns:xlink="http://www.w3.org/1999/xlink" contentStyleType="text/css" height="295px" preserveAspectRatio="none" style="width:176px;height:295px;background:#FFFFFF;" version="1.1" viewBox="0 0 176 295" width="176px" zoomAndPan="magnify"><defs/><g><ellipse cx="86" cy="20" fill="#222222" rx="10" ry="10" style="stroke:#222222;stroke-width:1.0;"/><rect fill="#F1F1F1" height="33.9688" rx="12.5" ry="12.5" style="stroke:#181818;stroke-width:0.5;" width="115" x="28.5" y="50"/><text fill="#000000" font-family="sans-serif" font-size="12" lengthAdjust="spacing" textLength="95" x="38.5" y="71.1387">&#22793;&#25968;i&#12434;0&#12391;&#21021;&#26399;&#21270;</text><rect fill="#F1F1F1" height="33.9688" rx="12.5" ry="12.5" style="stroke:#181818;stroke-width:0.5;" width="59" x="56.5" y="164.7734"/><text fill="#000000" font-family="sans-serif" font-size="12" lengthAdjust="spacing" textLength="39" x="66.5" y="185.9121">i&#12434;&#20986;&#21147;</text><rect fill="#F1F1F1" height="33.9688" rx="12.5" ry="12.5" style="stroke:#181818;stroke-width:0.5;" width="78" x="47" y="227.8398"/><text fill="#000000" font-family="sans-serif" font-size="12" lengthAdjust="spacing" textLength="58" x="57" y="248.9785">i&#12434;1&#22679;&#12420;&#12377;</text><polygon fill="#F1F1F1" points="64.5,103.9688,107.5,103.9688,119.5,115.9688,107.5,127.9688,64.5,127.9688,52.5,115.9688,64.5,103.9688" style="stroke:#181818;stroke-width:0.5;"/><text fill="#000000" font-family="sans-serif" font-size="11" lengthAdjust="spacing" textLength="74" x="90" y="138.1792">true) do (yes</text><text fill="#000000" font-family="sans-serif" font-size="11" lengthAdjust="spacing" textLength="43" x="64.5" y="119.7769">i &lt;= 10</text><text fill="#000000" font-family="sans-serif" font-size="11" lengthAdjust="spacing" textLength="14" x="38.5" y="113.3745">no</text><ellipse cx="24" cy="162.9688" fill="none" rx="11" ry="11" style="stroke:#222222;stroke-width:1.0;"/><ellipse cx="24" cy="162.9688" fill="#222222" rx="6" ry="6" style="stroke:#111111;stroke-width:1.0;"/><line style="stroke:#181818;stroke-width:1.0;" x1="86" x2="86" y1="30" y2="50"/><polygon fill="#181818" points="82,40,86,50,90,40,86,44" style="stroke:#181818;stroke-width:1.0;"/><line style="stroke:#181818;stroke-width:1.0;" x1="86" x2="86" y1="198.7422" y2="227.8398"/><polygon fill="#181818" points="82,217.8398,86,227.8398,90,217.8398,86,221.8398" style="stroke:#181818;stroke-width:1.0;"/><line style="stroke:#181818;stroke-width:1.0;" x1="86" x2="86" y1="127.9688" y2="164.7734"/><polygon fill="#181818" points="82,154.7734,86,164.7734,90,154.7734,86,158.7734" style="stroke:#181818;stroke-width:1.0;"/><line style="stroke:#181818;stroke-width:1.0;" x1="86" x2="86" y1="261.8086" y2="271.8086"/><line style="stroke:#181818;stroke-width:1.0;" x1="86" x2="137" y1="271.8086" y2="271.8086"/><polygon fill="#181818" points="133,207.8398,137,197.8398,141,207.8398,137,203.8398" style="stroke:#181818;stroke-width:1.0;"/><line style="stroke:#181818;stroke-width:1.0;" x1="137" x2="137" y1="115.9688" y2="271.8086"/><line style="stroke:#181818;stroke-width:1.0;" x1="137" x2="119.5" y1="115.9688" y2="115.9688"/><polygon fill="#181818" points="129.5,111.9688,119.5,115.9688,129.5,119.9688,125.5,115.9688" style="stroke:#181818;stroke-width:1.0;"/><line style="stroke:#181818;stroke-width:1.0;" x1="52.5" x2="24" y1="115.9688" y2="115.9688"/><line style="stroke:#181818;stroke-width:1.0;" x1="24" x2="24" y1="115.9688" y2="151.9688"/><polygon fill="#181818" points="20,141.9688,24,151.9688,28,141.9688,24,145.9688" style="stroke:#181818;stroke-width:1.0;"/><line style="stroke:#181818;stroke-width:1.0;" x1="86" x2="86" y1="83.9688" y2="103.9688"/><polygon fill="#181818" points="82,93.9688,86,103.9688,90,93.9688,86,97.9688" style="stroke:#181818;stroke-width:1.0;"/><!--SRC=[Aov9B2hXuh9wkgJpsTGDcO-R9XayRbp-j6Fkipdpd_PCi-OgpyZCILNGo5ImiLKmDD1Ko2nMq2WfAatLL4Z9Lz2eJ2tMv5800YkGrgVjkvvspRP621W-NJJzSLFBuyQPrbofUIbGi_BoDRcuYalo2m00]--></g></svg>